<mxfile host="Electron" agent="Mozilla/5.0 (Macintosh; Intel Mac OS X 10_15_7) AppleWebKit/537.36 (KHTML, like Gecko) draw.io/26.2.2 Chrome/134.0.6998.178 Electron/35.1.2 Safari/537.36" version="26.2.2">
  <diagram name="Page-1" id="-H_mtQnk-PTXWXPvYvuk">
    <mxGraphModel dx="659" dy="748" grid="1" gridSize="10" guides="1" tooltips="1" connect="1" arrows="1" fold="1" page="1" pageScale="1" pageWidth="1169" pageHeight="827" math="0" shadow="0">
      <root>
        <mxCell id="0" />
        <mxCell id="1" parent="0" />
        <mxCell id="zA23MoTUsTF4_91t8viU-2" value="&lt;b&gt;shard1-1&lt;/b&gt;" style="shape=cylinder3;whiteSpace=wrap;html=1;boundedLbl=1;backgroundOutline=1;size=15;" parent="1" vertex="1">
          <mxGeometry x="145" y="450" width="110" height="80" as="geometry" />
        </mxCell>
        <mxCell id="zA23MoTUsTF4_91t8viU-3" value="pymongo-api" style="rounded=1;whiteSpace=wrap;html=1;" parent="1" vertex="1">
          <mxGeometry x="320" y="120" width="120" height="60" as="geometry" />
        </mxCell>
        <mxCell id="fXULbJ91V3LHjDGZYGSr-2" style="edgeStyle=orthogonalEdgeStyle;rounded=0;orthogonalLoop=1;jettySize=auto;html=1;entryX=0.5;entryY=0;entryDx=0;entryDy=0;" edge="1" parent="1" source="ypXTvWuPCxLjXO1J6HbK-1" target="ypXTvWuPCxLjXO1J6HbK-16">
          <mxGeometry relative="1" as="geometry" />
        </mxCell>
        <mxCell id="ypXTvWuPCxLjXO1J6HbK-1" value="router" style="rounded=1;whiteSpace=wrap;html=1;arcSize=26;" parent="1" vertex="1">
          <mxGeometry x="320" y="230" width="120" height="50" as="geometry" />
        </mxCell>
        <mxCell id="ypXTvWuPCxLjXO1J6HbK-10" value="&lt;b&gt;shard1-2&lt;/b&gt;" style="shape=cylinder3;whiteSpace=wrap;html=1;boundedLbl=1;backgroundOutline=1;size=15;" parent="1" vertex="1">
          <mxGeometry x="505" y="450" width="110" height="80" as="geometry" />
        </mxCell>
        <mxCell id="fXULbJ91V3LHjDGZYGSr-4" style="edgeStyle=orthogonalEdgeStyle;rounded=0;orthogonalLoop=1;jettySize=auto;html=1;" edge="1" parent="1" source="ypXTvWuPCxLjXO1J6HbK-16" target="ypXTvWuPCxLjXO1J6HbK-10">
          <mxGeometry relative="1" as="geometry" />
        </mxCell>
        <mxCell id="ypXTvWuPCxLjXO1J6HbK-16" value="configServer" style="rounded=1;whiteSpace=wrap;html=1;arcSize=26;" parent="1" vertex="1">
          <mxGeometry x="310" y="340" width="140" height="50" as="geometry" />
        </mxCell>
        <mxCell id="fXULbJ91V3LHjDGZYGSr-1" style="edgeStyle=orthogonalEdgeStyle;rounded=0;orthogonalLoop=1;jettySize=auto;html=1;entryX=0.5;entryY=0;entryDx=0;entryDy=0;" edge="1" parent="1" source="zA23MoTUsTF4_91t8viU-3" target="ypXTvWuPCxLjXO1J6HbK-1">
          <mxGeometry relative="1" as="geometry" />
        </mxCell>
        <mxCell id="fXULbJ91V3LHjDGZYGSr-3" style="edgeStyle=orthogonalEdgeStyle;rounded=0;orthogonalLoop=1;jettySize=auto;html=1;entryX=0.5;entryY=0;entryDx=0;entryDy=0;entryPerimeter=0;" edge="1" parent="1" source="ypXTvWuPCxLjXO1J6HbK-16" target="zA23MoTUsTF4_91t8viU-2">
          <mxGeometry relative="1" as="geometry" />
        </mxCell>
      </root>
    </mxGraphModel>
  </diagram>
</mxfile>
